{"title":"Chelsea S01E14 720p WEBRip x264-TheRival","uid":14865105,"size":580589135,"categoryP":"video","categoryS":"hd___tv_shows","magnet":"?xt=urn:btih:544a67bf2e0c706847a26fe7f5932091b7efff55&amp;dn=Chelsea+S01E14+720p+WEBRip+x264-TheRival&amp;tr=udp%3A%2F%2Ftracker.leechers-paradise.org%3A6969&amp;tr=udp%3A%2F%2Fzer0day.ch%3A1337&amp;tr=udp%3A%2F%2Fopen.demonii.com%3A1337&amp;tr=udp%3A%2F%2Ftracker.coppersurfer.tk%3A6969&amp;tr=udp%3A%2F%2Fexodus.desync.com%3A6969","seeders":0,"leechers":1,"uploader":"TheRival","files":3,"time":1465532990,"description":"Screens: \nhttp://extraimago.com/image/aB5G \nhttp://extraimago.com/image/aB5P \nhttp://extraimago.com/image/aB5X\r\n\r\nVideo\r\nID : 1\r\nFormat : AVC\r\nFormat/Info : Advanced Video Codec\r\nFormat profile :   \r\nFormat settings, CABAC : Yes\r\nFormat settings, ReFrames : 2 frames\r\nFormat settings, GOP : M=1, N=24\r\nCodec ID : avc1\r\nCodec ID/Info : Advanced Video Coding\r\nDuration : 32mn 31s\r\nSource duration : 32mn 31s\r\nBit rate mode : Variable\r\nBit rate : 2 247 Kbps\r\nMaximum bit rate : 3 450 Kbps\r\nWidth : 1 280 pixels\r\nHeight : 720 pixels\r\nDisplay aspect ratio : 16:9\r\nFrame rate mode : Constant\r\nFrame rate : 29.970 (30000/1001) fps\r\nColor space : YUV\r\nChroma subsampling : 4:2:0\r\nBit depth : 8 bits\r\nScan type : Progressive\r\nBits/(Pixel*Frame) : 0.081\r\nStream size : 523 MiB (94%)\r\nSource stream size : 523 MiB (94%)\r\nEncoded date : UTC 2016-06-10 02:04:11\r\nTagged date : UTC 2016-06-10 02:08:09\r\nColor primaries : BT.709\r\nTransfer characteristics : BT.709\r\nMatrix coefficients : BT.709\r\n\r\nAudio\r\nID : 2\r\nFormat : AAC\r\nFormat/Info : Advanced Audio Codec\r\nFormat profile : LC\r\nCodec ID : 40\r\nDuration : 32mn 32s\r\nBit rate mode : Variable\r\nBit rate : 128 Kbps\r\nMaximum bit rate : 133 Kbps\r\nChannel(s) : 2 channels\r\nChannel positions : Front: L R\r\nSampling rate : 48.0 KHz\r\nFrame rate : 46.875 fps (1024 spf)\r\nCompression mode : Lossy\r\nStream size : 29.8 MiB (5%)\r\nTitle : aac 2.0\r\nDefault : Yes\r\nAlternate group : 1","torrent":{"xt":"urn:btih:544a67bf2e0c706847a26fe7f5932091b7efff55","amp;dn":"Chelsea+S01E14+720p+WEBRip+x264-TheRival","amp;tr":["udp%3A%2F%2Ftracker.leechers-paradise.org%3A6969","udp%3A%2F%2Fzer0day.ch%3A1337","udp%3A%2F%2Fopen.demonii.com%3A1337","udp%3A%2F%2Ftracker.coppersurfer.tk%3A6969","udp%3A%2F%2Fexodus.desync.com%3A6969"],"infoHash":"544a67bf2e0c706847a26fe7f5932091b7efff55","infoHashBuffer":{"type":"Buffer","data":[84,74,103,191,46,12,112,104,71,162,111,231,245,147,32,145,183,239,255,85]},"announce":[],"urlList":[]}}